<svg width="150" height="59" viewBox="0 0 150 59" fill="none" xmlns="http://www.w3.org/2000/svg">
<path d="M12.006 48.2787C9.27699 48.5655 7.6154 46.15 7.24077 42.5856C6.63785 36.8492 8.99286 28.7185 13.0028 28.2971C15.9545 27.9868 17.4373 30.3085 17.8178 33.9286C18.4149 39.6093 16.0716 47.8514 12.006 48.2787ZM11.8554 54.8826C22.4928 53.7646 25.8537 42.8817 24.7532 32.4113C24.0859 26.0623 20.5107 20.9762 13.1592 21.7488C2.9116 22.8259 -0.783396 33.7439 0.31708 44.2143C0.98439 50.5633 4.55962 55.6494 11.8554 54.8826Z" fill="white"/>
<path d="M39.7721 45.3604C37.0431 45.6472 35.3815 43.2316 35.0069 39.6673C34.404 33.9309 36.759 25.8002 40.7689 25.3787C43.7206 25.0685 45.2034 27.3902 45.5839 31.0103C46.181 36.691 43.8377 44.9331 39.7721 45.3604ZM39.6216 51.9643C50.259 50.8462 53.6198 39.9633 52.5193 29.493C51.852 23.144 48.2768 18.0578 40.9253 18.8305C30.6777 19.9076 26.9827 30.8256 28.0832 41.2959C28.7505 47.645 32.3257 52.7311 39.6216 51.9643Z" fill="white"/>
<path d="M67.5382 42.442C64.8092 42.7289 63.1476 40.3133 62.773 36.7489C62.1701 31.0125 64.5251 22.8818 68.535 22.4604C71.4868 22.1501 72.9696 24.4719 73.35 28.0919C73.9471 33.7726 71.6038 42.0147 67.5382 42.442ZM67.3877 49.0459C78.0251 47.9279 81.3859 37.045 80.2854 26.5747C79.6181 20.2256 76.0429 15.1395 68.6914 15.9122C58.4438 16.9892 54.7488 27.9073 55.8493 38.3776C56.5166 44.7266 60.0919 49.8128 67.3877 49.0459Z" fill="white"/>
<path d="M89.8056 57.3883L90.7186 48.3956C90.9475 46.2882 91.1238 43.6794 91.1238 43.6794L91.2352 43.6677C92.4016 45.1218 94.1513 46.233 97.5486 45.8759C107.295 44.8515 110.091 30.199 109.306 22.7361C108.604 16.0529 105.09 12.0865 99.7434 12.6485C97.0701 12.9294 94.7278 14.7523 93.3382 16.5313L93.2268 16.543C93.1977 15.1946 93.0659 14.4765 92.896 13.9312L86.547 14.5985C86.6378 14.9269 86.6729 15.261 86.7139 15.6509C86.8426 16.8761 86.7662 18.2919 86.6869 19.1448L82.5654 58.1493L89.8056 57.3883ZM93.1286 25.7879C93.4046 23.0561 95.1023 19.3865 98.1097 19.0704C100.727 18.7953 101.791 20.8795 102.084 23.6642C102.71 29.6234 101.392 39.0527 95.9902 39.6205C93.484 39.8839 92.3558 38.257 92.145 36.252C92.0923 35.7508 92.0954 35.2437 92.1541 34.7307L93.1286 25.7879Z" fill="white"/>
<path d="M135.818 14.0373C133.406 10.9123 128.552 9.73317 124.375 10.1722C117.246 10.9215 113.291 15.6166 113.877 21.1859C114.872 30.6537 127.473 27.8652 128 32.8776C128.229 35.0497 126.725 36.2776 124.441 36.5176C121.211 36.8571 117.917 35.5141 116.217 33.2715L111.532 37.987C113.671 41.197 118.548 43.6687 124.229 43.0717C131.246 42.3341 135.629 37.4251 134.974 31.1874C134.002 21.9424 121.275 24.0684 120.83 19.8357C120.596 17.608 122.434 16.3449 124.606 16.1166C126.889 15.8767 129.518 16.7828 130.599 19.0341L135.818 14.0373Z" fill="white"/>
<path d="M146.311 28.3629L149.235 0.464478L141.994 1.22544L139.071 29.1239L146.311 28.3629ZM142.363 41.1657C144.758 40.914 146.508 38.8155 146.245 36.3093C145.982 33.8031 143.839 32.1701 141.444 32.4218C139.05 32.6736 137.238 34.7222 137.501 37.2284C137.765 39.7345 139.969 41.4174 142.363 41.1657Z" fill="white"/>
</svg>
