<svg width="173" height="61" viewBox="0 0 173 61" fill="none" xmlns="http://www.w3.org/2000/svg">
<path d="M27.2729 48.6034C26.9006 48.8115 26.5781 48.958 26.244 48.9931C25.3529 49.0868 24.6143 48.4887 24.4855 47.2635C24.4563 46.985 24.4768 46.645 24.4974 46.305L25.6745 35.5389C25.8448 33.9444 25.8538 32.4231 25.7133 31.0865C25.204 26.2412 22.5488 23.4796 17.2023 24.0415C14.7518 24.2991 11.8291 25.9577 10.0934 28.7303L9.98206 28.742C9.85629 27.0097 9.76264 26.1186 9.51946 25.4121L3.17043 26.0794C3.26125 26.4077 3.29637 26.7419 3.33734 27.1318C3.46612 28.357 3.38969 29.7728 3.31041 30.6257L0.413004 58.2398L7.65312 57.4789L9.75209 37.2688C10.1925 32.8867 12.5143 30.334 15.1876 30.0531C17.5824 29.8014 18.3648 31.3521 18.5521 33.1343C18.6282 33.8583 18.6486 34.5881 18.5576 35.3297L17.2896 46.8373C17.178 47.9189 17.172 48.9331 17.2715 49.8799C17.7281 54.2239 20.5651 56.5722 26.4246 56.069L27.2729 48.6034Z" fill="white"/>
<path d="M42.0261 47.8411C39.2971 48.128 37.6355 45.7124 37.2609 42.148C36.6579 36.4116 39.013 28.2809 43.0229 27.8595C45.9746 27.5492 47.4574 29.871 47.8379 33.491C48.435 39.1717 46.0917 47.4138 42.0261 47.8411ZM41.8755 54.445C52.5129 53.327 55.8738 42.4441 54.7733 31.9738C54.106 25.6247 50.5308 20.5386 43.1793 21.3113C32.9317 22.3883 29.2367 33.3064 30.3372 43.7767C31.0045 50.1257 34.5797 55.2119 41.8755 54.445Z" fill="white"/>
<path d="M84.4631 42.5362C82.9856 43.4798 81.4439 42.7409 81.6671 40.5777L85.0811 8.23569L77.841 8.99666L77.0484 16.4564C76.8634 18.4466 76.7545 21.1609 76.7545 21.1609L76.5875 21.1784C75.4358 19.3287 73.4574 18.1852 70.45 18.5013C62.6529 19.3208 57.3194 30.1858 58.5311 41.7143C59.2277 48.3418 62.68 52.2584 67.8595 51.714C71.9808 51.2809 74.0359 48.8688 75.3553 46.4215C76.5098 48.834 78.9424 50.5492 83.6148 50.0018L84.4631 42.5362ZM74.8497 36.7896C74.5944 39.1814 73.3947 44.3752 69.7746 44.7557C67.0457 45.0425 66.0112 43.2368 65.7303 40.5635C65.2503 35.9967 66.1606 25.3713 71.8413 24.7742C74.9601 24.4464 75.927 27.2165 75.6012 30.0099L74.8497 36.7896Z" fill="white"/>
<path d="M103.54 43.7407C103.1 49.1926 102.184 53.343 98.5087 53.7294C95.5569 54.0396 93.5874 52.4447 92.5677 50.2433L87.2439 55.3075C89.1662 58.5966 92.9178 61.074 98.0972 60.5296C106.061 59.6925 109.495 54.3202 110.452 45.2103L113.223 19.0735C113.328 17.9362 113.563 15.8844 114.308 14.3984L107.959 15.0657C107.959 15.0657 107.044 17.0764 106.786 18.9054L106.675 18.9171C105.426 16.6833 103.562 15.0211 100.054 15.3898C92.2565 16.2093 87.0815 25.3684 88.2932 36.8969C88.9898 43.5244 92.4421 47.441 97.6216 46.8966C100.685 46.5747 102.344 45.2178 103.429 43.7524L103.54 43.7407ZM104.715 31.342C104.224 35.7856 102.433 39.634 99.5367 39.9383C96.8078 40.2252 95.7733 38.4194 95.4924 35.7461C95.0124 31.1793 95.7642 22.2598 101.445 21.6628C103.84 21.4111 104.98 23.1494 105.202 25.2658C105.249 25.7113 105.234 26.107 105.219 26.5027L104.715 31.342Z" fill="white"/>
<path d="M141.007 29.8362L141.204 27.9573C141.433 25.8498 141.489 23.7042 141.284 21.7549C140.664 15.8515 137.047 11.4453 129.696 12.218C120.506 13.1839 115.75 24.7202 116.722 33.9653C117.459 40.9826 121.597 46.0659 129.896 45.1938C134.518 44.7079 137.397 42.0967 140.537 38.2192L135.338 33.7542C134.109 36.5299 131.846 38.5696 129.562 38.8096C126.165 39.1667 124.504 36.7511 124.129 33.1868C124.076 32.6855 124.024 32.1843 124.021 31.6215L141.007 29.8362ZM124.479 26.3367C125.271 22.0866 127.241 18.3321 130.193 18.0218C132.811 17.7467 134.1 20.3703 134.41 23.322C134.475 23.9347 134.495 24.6645 134.448 25.2889L124.479 26.3367Z" fill="white"/>
<path d="M159.054 34.7527C158.476 35.1512 157.832 35.4443 156.718 35.5613C155.158 35.7252 154.056 34.8838 153.886 33.2687C153.857 32.9902 153.822 32.6561 153.893 32.2545L155.539 16.3151L161.61 15.677L162.297 9.35457L156.226 9.99262L157.216 0.654053L149.975 1.41502L148.986 10.7536L145.7 11.0989L145.013 17.4214L148.299 17.076L146.676 32.1684C146.564 33.25 146.564 34.3198 146.664 35.2666C147.185 40.2233 150.47 43.0876 155.594 42.5491C157.042 42.3969 158.405 41.9721 159.49 41.5765L159.054 34.7527Z" fill="white"/>
<path d="M168.141 41.174C170.536 40.9223 172.286 38.8238 172.023 36.3176C171.759 33.8114 169.617 32.1784 167.222 32.4301C164.827 32.6819 163.016 34.7305 163.279 37.2367C163.542 39.7428 165.746 41.4257 168.141 41.174Z" fill="white"/>
</svg>
