<svg width="2349" height="2500" viewBox="0 0 2349 2500" fill="none" xmlns="http://www.w3.org/2000/svg">
<g clip-path="url(#clip0)">
<path d="M1680.5 108.5L122.5 240L435 570L2073 424L1680.5 108.5Z" fill="white" stroke="black" stroke-linecap="round" stroke-linejoin="round"/>
<path d="M2198 531.5L400 642.5V2235.5L490.5 2322.5L2246.5 2235.5L2198 531.5Z" fill="white" stroke="black" stroke-linecap="round" stroke-linejoin="round"/>
<path d="M839.357 78.4999C456.793 106.808 131.57 132.841 116.279 135.889C73.4062 143.535 34.4046 172.617 16.0652 210.892L0 244.571L1.54845 1047.25L3.82274 1849.93L28.3076 1899.67C42.0985 1927.21 135.441 2055.77 237.203 2188.12C438.454 2449.03 452.97 2463.6 529.473 2471.24C551.684 2473.52 718.481 2465.87 899.069 2455.18C1080.43 2443.71 1371.15 2426.1 1545.64 2416.18C2290.88 2370.93 2252.61 2374.76 2295.43 2338.03C2349 2293.66 2345.18 2366.34 2347.45 1390.76C2349 563.601 2348.23 509.308 2335.98 484.049C2321.47 455.741 2295.43 435.853 1955.69 197.102C1728.46 37.9499 1712.39 29.5302 1610.58 27.9817C1568.53 26.4816 1221.15 49.4181 839.357 78.4999ZM1699.38 183.311C1731.51 197.827 1966.44 361.576 2000.84 392.981C2010.03 402.175 2013.08 409.82 2008.49 414.417C1997.79 423.611 543.942 510.082 501.892 503.937C482.778 500.888 454.47 489.42 438.405 478.678C371.822 433.531 206.573 298.09 206.573 288.17C206.573 262.137 201.202 262.137 849.325 215.489C973.298 207.07 1176.82 191.779 1300.8 181.811C1569.31 160.374 1649.68 161.148 1699.38 183.311ZM2161.54 601.876C2172.23 612.57 2181.43 633.232 2184.48 653.12C2186.75 671.508 2188.3 1014.3 2186.75 1413.7C2184.48 2099.28 2183.7 2142.15 2170.69 2162.04C2163.04 2174.28 2147.75 2187.3 2136.23 2191.12C2104.15 2204.14 580.718 2290.61 549.361 2281.41C534.845 2277.59 514.908 2265.35 504.214 2254.65L485.826 2234.77L483.552 1495.62C482.004 976.844 483.552 747.286 489.698 726.623C494.295 711.332 505.763 692.945 515.731 686.848C529.522 677.654 619.816 670.008 930.474 651.669C1148.56 639.426 1485.98 618.764 1679.59 607.296C2140.1 578.94 2138.6 578.94 2161.54 601.876Z" fill="black"/>
<path d="M1752.17 855.145C1669.52 860.516 1596.07 868.161 1587.65 872.758C1562.39 885.775 1547.1 907.212 1544.05 931.696C1541.77 956.955 1549.42 960.004 1632.02 969.972L1667.97 974.569V1301.29C1667.97 1495.62 1664.92 1624.19 1661.1 1620.37C1657.28 1615.77 1548.65 1450.52 1419.3 1253.1C1290.01 1054.94 1182.87 891.921 1181.32 890.42C1179.78 888.872 1095.63 893.469 994.638 900.389C870.665 908.808 802.582 916.454 788.791 924.099C766.581 935.567 742.096 976.118 742.096 1002.93C742.096 1018.99 771.177 1027.41 832.39 1027.41H864.52V1967.03L812.502 1983.09C771.952 1995.34 758.161 2002.98 751.29 2018.27C739.047 2044.31 739.821 2068.02 752.064 2068.02C756.661 2068.02 843.132 2062.65 942.572 2056.55C1139.22 2045.08 1161.39 2039.71 1182.05 1999.16C1188.19 1986.92 1193.52 1973.9 1193.52 1970.08C1193.52 1967.03 1166.76 1957.84 1134.58 1950.19C1101.68 1942.54 1068.77 1934.9 1061.9 1933.35C1048.88 1929.53 1048.11 1905.82 1048.11 1576.77V1224.01L1280.71 1589.01C1524.79 1971.58 1555.42 2015.22 1592.92 2034.34C1639.62 2058.82 1758.22 2041.98 1817.88 2002.98L1836.27 1991.51L1837.82 1469.69L1840.09 947.084L1880.64 939.439C1928.84 930.245 1951.05 908.082 1951.05 869.807C1951.05 845.322 1949.5 843.773 1926.56 844.548C1912.87 845.177 1834.04 849.774 1752.17 855.145V855.145Z" fill="black"/>
</g>
<defs>
<clipPath id="clip0">
<rect width="2349" height="2500" fill="white"/>
</clipPath>
</defs>
</svg>
